<svg width="66" height="65" viewBox="0 0 66 65" fill="none" xmlns="http://www.w3.org/2000/svg">
<path d="M52.0637 8.125C53.5172 8.125 54.9112 8.69568 55.939 9.7115C56.9667 10.7273 57.5441 12.1051 57.5441 13.5417V51.4583C57.5441 52.8949 56.9667 54.2727 55.939 55.2885C54.9112 56.3043 53.5172 56.875 52.0637 56.875H13.701C12.2475 56.875 10.8535 56.3043 9.82577 55.2885C8.79799 54.2727 8.2206 52.8949 8.2206 51.4583V13.5417C8.2206 12.1051 8.79799 10.7273 9.82577 9.7115C10.8535 8.69568 12.2475 8.125 13.701 8.125H52.0637ZM50.6936 50.1042V35.75C50.6936 33.4084 49.7525 31.1626 48.0772 29.5068C46.4019 27.851 44.1298 26.9208 41.7606 26.9208C39.4314 26.9208 36.7186 28.3292 35.4033 30.4417V27.4354H27.7582V50.1042H35.4033V36.7521C35.4033 34.6667 37.1023 32.9604 39.2122 32.9604C40.2297 32.9604 41.2054 33.3599 41.9249 34.071C42.6443 34.782 43.0485 35.7465 43.0485 36.7521V50.1042H50.6936ZM18.8526 23.1833C20.0735 23.1833 21.2444 22.704 22.1077 21.8507C22.9711 20.9974 23.4561 19.8401 23.4561 18.6333C23.4561 16.1146 21.4009 14.0563 18.8526 14.0563C17.6244 14.0563 16.4465 14.5385 15.578 15.3968C14.7095 16.2552 14.2216 17.4194 14.2216 18.6333C14.2216 21.1521 16.3042 23.1833 18.8526 23.1833ZM22.6614 50.1042V27.4354H15.0711V50.1042H22.6614Z" fill="#06419F"/>
</svg>
