<svg width="66" height="65" viewBox="0 0 66 65" fill="none" xmlns="http://www.w3.org/2000/svg">
<path d="M21.3735 5.4165H44.3912C53.1598 5.4165 60.2843 12.4582 60.2843 21.1248V43.8748C60.2843 48.0409 58.6098 52.0364 55.6293 54.9823C52.6488 57.9282 48.6063 59.5832 44.3912 59.5832H21.3735C12.6049 59.5832 5.48038 52.5415 5.48038 43.8748V21.1248C5.48038 16.9587 7.15483 12.9633 10.1354 10.0174C13.1159 7.07148 17.1584 5.4165 21.3735 5.4165ZM20.8255 10.8332C18.2092 10.8332 15.7001 11.8604 13.8501 13.6889C12.0001 15.5174 10.9608 17.9973 10.9608 20.5832V44.4165C10.9608 49.8061 15.3725 54.1665 20.8255 54.1665H44.9392C47.5555 54.1665 50.0646 53.1393 51.9146 51.3108C53.7646 49.4823 54.8039 47.0023 54.8039 44.4165V20.5832C54.8039 15.1936 50.3922 10.8332 44.9392 10.8332H20.8255ZM47.2684 14.8957C48.1768 14.8957 49.048 15.2523 49.6904 15.8872C50.3327 16.5221 50.6936 17.3832 50.6936 18.2811C50.6936 19.179 50.3327 20.04 49.6904 20.6749C49.048 21.3098 48.1768 21.6665 47.2684 21.6665C46.3599 21.6665 45.4887 21.3098 44.8463 20.6749C44.204 20.04 43.8431 19.179 43.8431 18.2811C43.8431 17.3832 44.204 16.5221 44.8463 15.8872C45.4887 15.2523 46.3599 14.8957 47.2684 14.8957ZM32.8823 18.9582C36.5161 18.9582 40.001 20.3849 42.5704 22.9244C45.1398 25.464 46.5833 28.9084 46.5833 32.4998C46.5833 36.0913 45.1398 39.5357 42.5704 42.0752C40.001 44.6148 36.5161 46.0415 32.8823 46.0415C29.2486 46.0415 25.7637 44.6148 23.1943 42.0752C20.6248 39.5357 19.1814 36.0913 19.1814 32.4998C19.1814 28.9084 20.6248 25.464 23.1943 22.9244C25.7637 20.3849 29.2486 18.9582 32.8823 18.9582ZM32.8823 24.3748C30.7021 24.3748 28.6112 25.2309 27.0695 26.7546C25.5278 28.2783 24.6617 30.3449 24.6617 32.4998C24.6617 34.6547 25.5278 36.7213 27.0695 38.2451C28.6112 39.7688 30.7021 40.6248 32.8823 40.6248C35.0626 40.6248 37.1535 39.7688 38.6952 38.2451C40.2368 36.7213 41.1029 34.6547 41.1029 32.4998C41.1029 30.3449 40.2368 28.2783 38.6952 26.7546C37.1535 25.2309 35.0626 24.3748 32.8823 24.3748Z" fill="#06419F"/>
</svg>
