<svg width="1474" height="800" viewBox="0 0 1474 800" fill="none" xmlns="http://www.w3.org/2000/svg">
<path fill-rule="evenodd" clip-rule="evenodd" d="M0 3.60193H672.506C664.754 16.2483 656.405 29.7646 647.615 43.9936L647.603 44.0135C552.021 198.746 404.392 437.734 406.735 558.68C408.551 652.477 472.058 732.563 563.253 770.659C599.088 784.208 648.24 798.411 690 797.602C706.006 797.292 721.775 799.125 737 796.602V799.602H0V3.60193Z" fill="#3E4347"/>
<path fill-rule="evenodd" clip-rule="evenodd" d="M672.506 3.60193C673.247 2.39329 673.982 1.19261 674.712 0C674.784 1.20332 674.86 2.40395 674.941 3.60193H672.506Z" fill="#EFEF24"/>
<path d="M672.506 3.60193C664.754 16.2483 656.405 29.7646 647.615 43.9936L647.603 44.0135C552.021 198.746 404.392 437.734 406.735 558.68C408.551 652.477 472.058 732.563 563.253 770.659C599.088 784.208 648.24 798.411 690 797.602C706.006 797.292 721.775 799.125 737 796.602C868.183 774.867 966.449 667.926 964.139 548.635C963.518 516.588 947.395 484.428 923.036 450.154L864.112 547.924L830.015 607.986L737 518.506L728.934 510.747L569.596 750.102L663.012 447.329L686.121 376.697L737 425.643L759.808 447.583L827.742 333.21C796.022 294.653 763.744 252.356 737 204.644C704.486 146.638 680.151 80.6275 674.941 3.60193H672.506Z" fill="#3E4347"/>
<path fill-rule="evenodd" clip-rule="evenodd" d="M737 799.602V796.602C868.183 774.867 966.449 667.926 964.139 548.635C963.518 516.588 947.395 484.428 923.036 450.154L864.112 547.924L830.015 607.986L737 518.506L728.934 510.747L569.596 750.102L663.012 447.329L686.121 376.697L737 425.643L759.808 447.583L827.742 333.21C796.022 294.653 763.744 252.356 737 204.644C704.486 146.638 680.151 80.6275 674.941 3.60193H737H1474V799.602H737Z" fill="#FCFCFD"/>
<path d="M1473 4.60156V798.602H738V797.447C869.168 775.33 967.455 668.232 965.139 548.615L965.098 547.099C964.001 515.245 947.858 483.353 923.852 449.575L922.968 448.331L922.18 449.639L863.256 547.408L863.249 547.419L863.242 547.431L829.78 606.373L737.693 517.785L729.628 510.026L728.765 509.196L728.102 510.192L572.583 743.808L663.963 447.64L686.575 378.521L736.307 426.363L759.114 448.304L760.023 449.179L760.667 448.094L828.602 333.721L828.961 333.117L828.515 332.575L825.541 328.951C794.799 291.389 763.739 250.303 737.872 204.155L736.356 201.435C704.809 144.457 681.28 79.792 676.015 4.60156H1473ZM736 798.602H728.454C730.98 798.418 733.496 798.149 736 797.771V798.602ZM690.02 798.602C692.777 798.548 695.523 798.561 698.261 798.602H690.02ZM670.719 4.60156C667.132 10.4496 663.421 16.4812 659.599 22.6797L646.765 43.4678L646.764 43.4688L646.752 43.4883C598.965 120.849 538.141 219.312 489.559 313.559C465.267 360.683 444.025 406.773 429 448.661C413.982 490.532 405.146 528.281 405.735 558.699C407.561 652.967 471.381 733.363 562.867 771.582L562.883 771.589L562.899 771.595C596.835 784.425 642.792 797.877 683.178 798.602H1V4.60156H670.719ZM674.01 4.60156C679.364 81.4062 703.689 147.261 736.128 205.133C762.789 252.697 794.932 294.874 826.523 333.303L759.592 445.988L737.693 424.922L686.814 375.977L685.666 374.872L685.171 376.387L662.062 447.018L662.06 447.026L662.057 447.034L568.64 749.807L570.428 750.656L729.103 512.297L736.307 519.227L829.321 608.707L830.249 609.6L830.885 608.48L864.969 548.44L923.103 451.979C946.936 485.743 962.531 517.305 963.139 548.654C965.438 667.366 867.617 773.947 736.837 795.615C729.313 796.862 721.634 797.035 713.806 796.932C706.496 796.835 699.002 796.493 691.484 796.579L689.98 796.603C648.423 797.407 599.425 783.264 563.625 769.73C472.73 731.753 409.542 651.982 407.734 558.66C407.152 528.605 415.892 491.127 430.882 449.336C445.866 407.562 467.066 361.557 491.336 314.475C539.877 220.308 600.659 121.911 648.453 44.5391H648.454L648.465 44.5186L648.466 44.5195C657.145 30.4697 665.395 17.1123 673.065 4.60156H674.01Z" stroke="#C5C9CD" stroke-width="2"/>
</svg>
